<?xml version="1.0" encoding="UTF-8" standalone="no"?>
<!-- Created with Inkscape (http://www.inkscape.org/) -->

<svg
   xmlns:dc="http://purl.org/dc/elements/1.1/"
   xmlns:cc="http://creativecommons.org/ns#"
   xmlns:rdf="http://www.w3.org/1999/02/22-rdf-syntax-ns#"
   xmlns:svg="http://www.w3.org/2000/svg"
   xmlns="http://www.w3.org/2000/svg"
   xmlns:sodipodi="http://sodipodi.sourceforge.net/DTD/sodipodi-0.dtd"
   xmlns:inkscape="http://www.inkscape.org/namespaces/inkscape"
   width="210mm"
   height="297mm"
   viewBox="0 0 210 297"
   version="1.1"
   id="svg8"
   inkscape:version="0.92.3 (2405546, 2018-03-11)"
   sodipodi:docname="angrybee_title.svg">
  <defs
     id="defs2" />
  <sodipodi:namedview
     id="base"
     pagecolor="#ffffff"
     bordercolor="#666666"
     borderopacity="1.0"
     inkscape:pageopacity="0.0"
     inkscape:pageshadow="2"
     inkscape:zoom="1.979899"
     inkscape:cx="368.53121"
     inkscape:cy="702.10462"
     inkscape:document-units="mm"
     inkscape:current-layer="g4918"
     showgrid="false"
     showguides="true"
     inkscape:window-width="1271"
     inkscape:window-height="891"
     inkscape:window-x="0"
     inkscape:window-y="65"
     inkscape:window-maximized="0" />
  <metadata
     id="metadata5">
    <rdf:RDF>
      <cc:Work
         rdf:about="">
        <dc:format>image/svg+xml</dc:format>
        <dc:type
           rdf:resource="http://purl.org/dc/dcmitype/StillImage" />
        <dc:title />
      </cc:Work>
    </rdf:RDF>
  </metadata>
  <g
     inkscape:label="Layer 1"
     inkscape:groupmode="layer"
     id="layer1">
    <g
       id="g4874"
       transform="translate(-26.192414,-0.53453906)">
      <g
         id="g4706">
        <path
           style="opacity:0.5;fill:#d7eef4;stroke:#000000;stroke-width:0.52681237;stroke-linejoin:round;stroke-miterlimit:4;stroke-dasharray:none;stroke-opacity:1"
           d="m 48.68169,115.9134 c -3.601945,2.41336 -9.493219,2.12648 -11.852527,-1.46514 -2.359312,-3.59161 -2.146,-8.92741 1.455951,-11.34077 1.800974,-1.20668 4.305428,-2.13307 6.193743,-1.75319 1.983856,0.39909 3.023388,0.88789 4.203041,2.68371 -0.01666,4.28724 -0.06736,7.70414 -2.08e-4,11.87539 z"
           id="path4530"
           inkscape:connector-curvature="0"
           sodipodi:nodetypes="cssscc" />
        <path
           style="opacity:0.50100002;fill:#d5f6ff;stroke:#000000;stroke-width:0.55339175;stroke-linejoin:round;stroke-miterlimit:4;stroke-dasharray:none;stroke-opacity:1"
           d="m 48.659085,110.11211 c -3.973738,2.41386 -10.473108,2.12692 -13.075944,-1.46545 -2.60284,-3.59237 -2.367511,-8.929294 1.606234,-11.343161 1.986871,-1.206934 4.749834,-2.133519 6.833061,-1.753559 2.188629,0.399174 3.335461,0.888077 4.636878,2.684275 -0.01838,4.288145 -0.07432,7.705765 -2.29e-4,11.877895 z"
           id="path4530-3"
           inkscape:connector-curvature="0"
           sodipodi:nodetypes="cssscc" />
      </g>
      <g
         id="g4702">
        <path
           style="opacity:0.5;fill:#d7eef4;fill-opacity:1;stroke:#000000;stroke-width:0.52681237;stroke-linejoin:round;stroke-miterlimit:4;stroke-dasharray:none;stroke-opacity:1"
           d="m 83.11845,116.04324 c 3.601945,2.41336 9.493219,2.12648 11.852527,-1.46514 2.359312,-3.59161 2.146,-8.92741 -1.455951,-11.34077 -1.800974,-1.20668 -4.305428,-2.13307 -6.193743,-1.75319 -1.983856,0.39909 -3.023388,0.88789 -4.203041,2.68371 0.01666,4.28724 0.06736,7.70414 2.08e-4,11.87539 z"
           id="path4530-7"
           inkscape:connector-curvature="0"
           sodipodi:nodetypes="cssscc" />
        <path
           style="opacity:0.5;fill:#d7eef4;fill-opacity:1;stroke:#000000;stroke-width:0.55339175;stroke-linejoin:round;stroke-miterlimit:4;stroke-dasharray:none;stroke-opacity:1"
           d="m 83.141055,110.24195 c 3.973738,2.41386 10.473108,2.12692 13.075944,-1.46545 2.60284,-3.59237 2.367511,-8.929296 -1.606234,-11.343163 -1.986871,-1.206934 -4.749834,-2.133519 -6.833061,-1.753559 -2.188629,0.399174 -3.335461,0.888077 -4.636878,2.684275 0.01838,4.288147 0.07432,7.705767 2.29e-4,11.877897 z"
           id="path4530-3-5"
           inkscape:connector-curvature="0"
           sodipodi:nodetypes="cssscc" />
      </g>
      <path
         sodipodi:nodetypes="ccccc"
         inkscape:connector-curvature="0"
         id="path4575"
         d="m 64.643131,137.0928 c 0.485374,0.49881 0.900111,1.02587 0.944941,1.70089 l -0.18899,11.43378 2.74033,-11.81176 c 0.220486,-0.69461 0.440972,-0.97022 0.661458,-1.22842"
         style="fill:none;stroke:#000000;stroke-width:0.5;stroke-linecap:butt;stroke-linejoin:miter;stroke-miterlimit:4;stroke-dasharray:none;stroke-opacity:1" />
      <path
         sodipodi:nodetypes="ccccc"
         inkscape:connector-curvature="0"
         id="path4579"
         d="m 49.318422,85.840423 h 23.84006 c 3.61017,-0.323868 6.619544,0.193251 6.501837,5.087614 l -0.471151,30.902543 c 0.05323,6.08116 -1.383267,10.75382 -4.345261,14.07146"
         style="fill:#ffd42a;stroke:#ffd42a;stroke-width:0.26382235px;stroke-linecap:butt;stroke-linejoin:miter;stroke-opacity:1" />
      <path
         transform="scale(0.26458333)"
         sodipodi:nodetypes="scccccccscss"
         inkscape:connector-curvature="0"
         id="path4581"
         d="m 266.85622,518.68173 c -0.067,-0.067 -13.70267,-0.30637 -30.08329,-0.31374 -17.24972,-0.008 -30.90271,-2.97563 -32.68962,-3.12027 -10.33455,-3.50062 -14.84783,-7.23044 -17.39004,-15.0073 -1.35953,-4.15895 -1.29031,0.38945 -1.28014,-84.12261 0.006,-50.53503 0.10027,-79.3818 0.2663,-81.5635 0.14128,-1.85654 0.42658,-4.11705 0.634,-5.02335 0.4889,-2.13624 1.11826,-4.0472 1.33249,-4.04595 0.1405,8.2e-4 56.0815,110.71361 86.60974,171.40928 l 9.39759,16.59331 -5.28455,4.39335 c -3.00176,2.49553 -11.4455,0.86776 -11.51248,0.80078 z"
         style="fill:#ffd42a;fill-opacity:1;stroke:#ffd42a;stroke-width:0.47723743;stroke-linejoin:round;stroke-miterlimit:4;stroke-dasharray:none;stroke-opacity:1" />
      <path
         transform="scale(0.26458333)"
         sodipodi:nodetypes="sccssscscscccccscccccs"
         inkscape:connector-curvature="0"
         id="path4583"
         d="m 283.65325,513.4876 c 0,0 0.58905,-0.84261 1.30901,-1.70463 3.38038,-4.04737 7.56113,-11.47786 9.6668,-17.18093 2.62084,-7.09833 4.18567,-14.65751 4.92322,-23.78232 0.33012,-4.08419 2.10998,-119.91598 1.95964,-127.53176 -0.12325,-6.24355 -0.44338,-8.0008 -2.0305,-11.14593 -2.07508,-4.1121 -5.36374,-6.43577 -10.67446,-7.54227 -1.81794,-0.37878 -6.419,-0.41347 -51.31686,-0.38696 l -49.31988,0.0291 0.42892,-0.83104 c 0.23591,-0.45708 1.18062,-1.58332 2.09936,-2.50278 1.89411,-1.89559 6.46773,-4.76398 9.57509,-5.66929 16.04037,-6.49107 33.53043,-5.99997 47.24504,-6.72096 48.55163,1.52864 49.93905,7.55673 54.5096,9.12231 6.2767,2.14999 9.8181,6.60919 10.74209,13.52601 0.23349,1.74785 0.27397,21.4643 0.17524,85.35789 l -0.12837,83.08505 -0.56758,2.02031 c -0.88309,3.14336 -1.47891,5.72083 -3.35409,7.59735 -2.65482,2.65669 -5.24469,4.78084 -11.47894,6.41896 -1.56215,0.91174 -19.74587,2.80066 -19.74587,2.80066 z"
         style="fill:#ffeeaa;fill-opacity:1;stroke:#ffd42a;stroke-width:0.47723743;stroke-linejoin:round;stroke-miterlimit:4;stroke-dasharray:none;stroke-opacity:1" />
      <path
         sodipodi:nodetypes="ccccccccc"
         inkscape:connector-curvature="0"
         id="path4528"
         d="m 54.192337,82.97098 c -4.873438,1.194784 -5.463507,3.156429 -5.386163,6.945313 l -0.04725,39.120537 c -0.246744,4.82319 1.845541,7.06353 7.039808,7.70127 6.968264,0.64974 13.948097,1.04108 21.166667,0.18899 5.705925,-0.84339 6.339137,-4.03839 6.094865,-7.79575 l 0.04725,-39.120543 c 0.2883,-4.006482 -1.775913,-6.132285 -7.134299,-7.27604 -7.057186,-1.54289 -15.083451,-1.607282 -21.780878,0.236223 z"
         style="fill:none;stroke:#000000;stroke-width:0.5;stroke-linecap:butt;stroke-linejoin:miter;stroke-miterlimit:4;stroke-dasharray:none;stroke-opacity:1" />
      <g
         transform="translate(36.215021,-33.208239)"
         id="g4607">
        <path
           style="fill:#ffffff;fill-opacity:1;stroke:#000000;stroke-width:0.26458332px;stroke-linecap:butt;stroke-linejoin:miter;stroke-opacity:1"
           d="m 30.201457,130.5579 c -0.9934,1.25969 -2.2739,2.38855 -5.01941,2.07134 -5.606275,-0.99637 -4.816353,-6.11092 -4.877669,-7.34991 -0.02187,-2.09812 0.814771,-5.25388 5.821218,-5.54585 3.40318,0.0847 4.252753,1.87174 4.476765,4.07586 0.800646,-1.44887 1.663845,-2.83519 4.209495,-2.53906 1.297986,0.19059 2.136351,0.61174 3.207234,2.47225 1.147317,2.28607 -0.04961,5.50636 -0.601356,6.21402 -1.139002,1.54549 -2.733619,2.3044 -4.543583,2.27178 -1.088339,0.0355 -1.93979,-0.63964 -2.672694,-1.67043 z"
           id="path4585"
           inkscape:connector-curvature="0"
           sodipodi:nodetypes="cccccccccc" />
        <ellipse
           style="fill:#000000;fill-opacity:1;stroke:#000000;stroke-width:0.67084914;stroke-linejoin:round;stroke-miterlimit:4;stroke-dasharray:none;stroke-opacity:1"
           id="path4587"
           cx="28.442707"
           cy="126.43825"
           rx="1.8044564"
           ry="2.2769268" />
        <ellipse
           style="fill:#000000;fill-opacity:1;stroke:#000000;stroke-width:0.54583508;stroke-linejoin:round;stroke-miterlimit:4;stroke-dasharray:none;stroke-opacity:1"
           id="path4587-3"
           cx="31.714565"
           cy="127.91471"
           rx="1.5244224"
           ry="1.7842811" />
      </g>
      <path
         inkscape:connector-curvature="0"
         id="path4611"
         d="m 53.291922,69.811356 4.009044,-1.336346 8.619442,12.628483 2.80633,-10.423512 1.5368,3.140419"
         style="fill:none;stroke:#2b0000;stroke-width:1.06500006;stroke-linecap:round;stroke-linejoin:round;stroke-miterlimit:4;stroke-dasharray:none;stroke-opacity:1" />
      <path
         inkscape:connector-curvature="0"
         id="path4613"
         d="m 75.370006,108.24089 -3.875407,-4.67721 -2.204974,2.73951 -4.810853,-4.07586 -1.202711,1.46998 -1.069078,-1.06907 -5.345393,7.01582"
         style="fill:none;stroke:#000000;stroke-width:1.16499996;stroke-linecap:round;stroke-linejoin:round;stroke-miterlimit:4;stroke-dasharray:none;stroke-opacity:1" />
      <rect
         y="118.03597"
         x="49.573826"
         height="2.3445687"
         width="32.749805"
         id="rect4615-5"
         style="opacity:0.5;fill:#2b0000;fill-opacity:1;stroke:#2b0000;stroke-width:0.99875957;stroke-linecap:round;stroke-linejoin:miter;stroke-miterlimit:4;stroke-dasharray:none;stroke-opacity:1" />
      <rect
         y="112.50069"
         x="49.507225"
         height="2.3428116"
         width="32.88979"
         id="rect4615-5-6"
         style="opacity:0.5;fill:#2b0000;fill-opacity:1;stroke:#2b0000;stroke-width:1.00051665;stroke-linecap:round;stroke-linejoin:miter;stroke-miterlimit:4;stroke-dasharray:none;stroke-opacity:1" />
      <rect
         y="123.56507"
         x="49.534698"
         height="2.3445687"
         width="32.749805"
         id="rect4615-5-2"
         style="opacity:0.5;fill:#2b0000;fill-opacity:1;stroke:#2b0000;stroke-width:0.99875957;stroke-linecap:round;stroke-linejoin:miter;stroke-miterlimit:4;stroke-dasharray:none;stroke-opacity:1" />
      <rect
         y="129.0495"
         x="49.265396"
         height="2.3369868"
         width="33.251549"
         id="rect4615-5-2-9"
         style="opacity:0.5;fill:#2b0000;fill-opacity:1;stroke:#2b0000;stroke-width:1.00475276;stroke-linecap:round;stroke-linejoin:miter;stroke-miterlimit:4;stroke-dasharray:none;stroke-opacity:1" />
      <path
         sodipodi:nodetypes="ccsccccc"
         inkscape:connector-curvature="0"
         id="path4694"
         d="m 69.182321,137.33672 c -4.57332,-0.12485 -11.573501,-0.59188 -13.48918,-0.89995 -1.910061,-0.30718 -3.578288,-0.88636 -4.62297,-1.60501 l -0.388029,-0.26693 h 15.458407 15.529282 c -1.168916,1.41919 -2.722959,1.97095 -3.885866,2.24929 -2.056587,0.12655 -6.250389,0.58678 -8.601644,0.5226 z"
         style="opacity:0.5;fill:#2b0000;fill-opacity:1;stroke:#2b0000;stroke-width:0.22822171;stroke-linecap:round;stroke-linejoin:miter;stroke-miterlimit:4;stroke-dasharray:none;stroke-opacity:1" />
      <path
         transform="scale(0.26458333)"
         inkscape:connector-curvature="0"
         id="path4708"
         d="m 248.82857,539.75544 c 0.17186,-14.31145 0.12735,-16.44943 -0.36714,-17.6329 -0.30949,-0.74072 -0.56271,-1.40749 -0.56271,-1.48172 0,-0.0742 2.10648,-0.13495 4.68107,-0.13495 4.31547,0 4.6615,0.0488 4.43062,0.625 -0.13775,0.34375 -1.5837,6.33036 -3.21324,13.30357 -1.62953,6.97321 -3.4581,14.6875 -4.06348,17.14286 l -1.1007,4.46428 z"
         style="opacity:1;fill:#956a15;fill-opacity:1;stroke:#2b0000;stroke-width:1.5725534;stroke-linecap:round;stroke-linejoin:round;stroke-miterlimit:4;stroke-dasharray:none;stroke-opacity:1" />
    </g>
    <text
       xml:space="preserve"
       style="font-style:normal;font-variant:normal;font-weight:normal;font-stretch:normal;font-size:30.6706543px;line-height:1.25;font-family:Dingbats;-inkscape-font-specification:Dingbats;letter-spacing:0px;word-spacing:0px;fill:#000000;fill-opacity:1;stroke:none;stroke-width:0.76676631"
       x="90.872849"
       y="89.542122"
       id="text4878"
       transform="scale(0.83167533,1.2023923)"><tspan
         sodipodi:role="line"
         id="tspan4876"
         x="90.872849"
         y="89.542122"
         style="font-style:normal;font-variant:normal;font-weight:normal;font-stretch:normal;font-family:Keraleeyam;-inkscape-font-specification:Keraleeyam;stroke-width:0.76676631">AnGry</tspan></text>
    <text
       xml:space="preserve"
       style="font-style:normal;font-variant:normal;font-weight:normal;font-stretch:normal;font-size:37.65260696px;line-height:1.25;font-family:Dingbats;-inkscape-font-specification:Dingbats;letter-spacing:0px;word-spacing:0px;fill:#000000;fill-opacity:1;stroke:none;stroke-width:0.94131511"
       x="101.69762"
       y="119.34953"
       id="text4878-5"
       transform="scale(0.8721015,1.1466555)"><tspan
         sodipodi:role="line"
         id="tspan4876-3"
         x="101.69762"
         y="119.34953"
         style="font-style:normal;font-variant:normal;font-weight:normal;font-stretch:normal;font-family:Keraleeyam;-inkscape-font-specification:Keraleeyam;stroke-width:0.94131511">Bee</tspan></text>
    <g
       id="g4918"
       transform="translate(-14.566189,-20.312484)">
      <g
         id="g5483"
         transform="translate(4.4585855,4.4055362)">
        <path
           sodipodi:nodetypes="cccc"
           style="fill:none;stroke:#ffcc00;stroke-width:1.71500003;stroke-linecap:butt;stroke-linejoin:miter;stroke-miterlimit:4;stroke-dasharray:none;stroke-opacity:1"
           d="m 138.15676,119.73069 -13.105,8.19384 0.009,12.18528 13.36347,7.61419"
           id="path4900"
           inkscape:connector-curvature="0" />
        <path
           sodipodi:nodetypes="ccccc"
           style="fill:none;stroke:#ffcc00;stroke-width:1.71500003;stroke-linecap:butt;stroke-linejoin:miter;stroke-miterlimit:4;stroke-dasharray:none;stroke-opacity:1"
           d="m 125.05176,127.92453 -10.14745,-8.19384 -9.88897,7.27826 v 0 0"
           id="path4902"
           inkscape:connector-curvature="0" />
        <path
           sodipodi:nodetypes="cc"
           style="fill:none;stroke:#ffcc00;stroke-width:1.71500003;stroke-linecap:butt;stroke-linejoin:miter;stroke-miterlimit:4;stroke-dasharray:none;stroke-opacity:1"
           d="m 114.90431,119.73069 -0.0334,-10.30153"
           id="path4904"
           inkscape:connector-curvature="0" />
        <path
           sodipodi:nodetypes="cc"
           style="fill:none;stroke:#ffcc00;stroke-width:1.71500003;stroke-linecap:butt;stroke-linejoin:miter;stroke-miterlimit:4;stroke-dasharray:none;stroke-opacity:1"
           d="m 105.83843,126.77964 -4.22165,-3.22432"
           id="path4906"
           inkscape:connector-curvature="0" />
        <path
           style="fill:none;stroke:#ffcc00;stroke-width:1.71500003;stroke-linecap:butt;stroke-linejoin:miter;stroke-miterlimit:4;stroke-dasharray:none;stroke-opacity:1"
           d="m 138.2904,155.33817 0.13363,-7.61417 7.21628,-4.36696"
           id="path4908"
           inkscape:connector-curvature="0" />
        <path
           style="fill:none;stroke:#ffcc00;stroke-width:1.71500003;stroke-linecap:butt;stroke-linejoin:miter;stroke-miterlimit:4;stroke-dasharray:none;stroke-opacity:1"
           d="m 125.06056,140.10981 -4.67722,3.02328"
           id="path4910"
           inkscape:connector-curvature="0" />
      </g>
    </g>
  </g>
</svg>
